<?xml version="1.0" standalone="no"?>
<!DOCTYPE svg PUBLIC "-//W3C//DTD SVG 20010904//EN"
 "http://www.w3.org/TR/2001/REC-SVG-20010904/DTD/svg10.dtd">
<svg version="1.0" xmlns="http://www.w3.org/2000/svg"
 width="700.000000pt" height="700.000000pt" viewBox="0 0 700.000000 700.000000"
 preserveAspectRatio="xMidYMid meet">
<metadata>
Created by potrace 1.14, written by Peter Selinger 2001-2017
</metadata>
<g transform="translate(0.000000,700.000000) scale(0.100000,-0.100000)"
fill="#000000" stroke="none">
<path d="M3280 6994 c-19 -2 -84 -9 -145 -14 -578 -56 -1180 -283 -1660 -625
-237 -169 -531 -446 -709 -670 -416 -521 -673 -1147 -748 -1820 -17 -154 -17
-585 0 -730 69 -588 254 -1099 567 -1570 126 -189 242 -332 410 -504 580 -595
1295 -943 2140 -1043 145 -17 576 -17 730 0 822 91 1556 447 2131 1034 203
206 348 390 487 618 274 449 432 915 499 1465 16 135 16 591 0 730 -100 846
-447 1557 -1043 2141 -555 542 -1249 874 -2029 970 -117 15 -553 27 -630 18z
m-580 -2319 c382 -57 573 -245 596 -585 12 -175 -41 -317 -165 -441 -61 -61
-94 -85 -170 -122 -52 -25 -88 -48 -80 -51 8 -2 51 -16 95 -31 198 -63 327
-189 380 -370 23 -79 23 -254 0 -350 -29 -122 -79 -210 -170 -301 -85 -84
-153 -128 -268 -169 -142 -51 -192 -55 -724 -55 l-494 0 0 1245 0 1245 453 0
c343 0 475 -4 547 -15z m1430 -531 l0 -547 83 5 c57 3 92 10 115 24 24 14 126
153 367 505 184 268 350 500 369 517 46 40 69 44 259 40 l158 -3 -362 -510
c-424 -598 -430 -607 -480 -643 l-38 -29 32 -15 c18 -9 48 -28 67 -44 28 -24
811 -1189 828 -1232 4 -11 -32 -13 -186 -10 -187 3 -191 3 -217 28 -15 14
-176 247 -357 518 -182 271 -342 507 -355 523 -40 47 -77 61 -184 66 l-99 6 0
-572 0 -571 -175 0 -175 0 0 1245 0 1245 175 0 175 0 0 -546z"/>
<path d="M2050 4001 l0 -421 258 0 c286 0 343 8 444 62 71 38 131 101 166 176
25 52 27 68 27 182 0 140 -10 185 -58 257 -39 59 -107 106 -195 135 -61 20
-91 22 -354 26 l-288 4 0 -421z"/>
<path d="M2050 2899 l0 -430 318 3 c360 5 397 11 504 88 111 79 153 176 153
355 0 114 -2 123 -31 185 -55 114 -133 175 -269 210 -70 18 -111 20 -377 20
l-298 0 0 -431z"/>
</g>
</svg>
